<svg xmlns="http://www.w3.org/2000/svg" width="362" height="366" fill="none"><ellipse cx="181" cy="185.017" fill="url(#a)" rx="178.989" ry="177.983"/><path fill="#fff" stroke="#fff" d="m77.766 292.273-18.13 18.131a4 4 0 0 0 .488 6.073l17.807 12.837 20.29 12.372c.215.131.442.242.678.33l31.468 11.801c.236.088.481.154.73.197l37.502 6.415a4 4 0 0 0 .674.057h29.395c.287 0 .574-.031.854-.092l31.4-6.869c.237-.052.468-.125.692-.219l30.411-12.753a4.01 4.01 0 0 0 .798-.448l33.802-24.462a4 4 0 0 0 .313-6.23l-.802-.713-17.352-16.361a4.15 4.15 0 0 0-.525-.418l-.783-.521a4.022 4.022 0 0 0-.954-.467l-.384-.128a4 4 0 0 0-1.265-.205h-.21a4 4 0 0 0-1.265.205l-.384.128c-.338.113-.658.27-.954.467l-1.063.708-2.011 1.509-4.022 2.514-8.547 6.033-5.531 3.519-12.067 6.536-6.536 3.017-6.536 2.514-6.033 2.011-11.061 3.017-6.034 1.508-6.536 1.006-7.039.502h-22.625l-6.033-.502-8.044-1.006-8.045-2.011-10.558-3.017-4.525-1.508-4.022-1.508-4.525-2.011-6.034-3.017-7.039-4.022-5.027-3.017-3.52-2.514-4.022-3.017-4.022-3.016-4.022-3.017-1.509-1.005-.5-.334a4 4 0 0 0-2.22-.672H82.1c-.43 0-.857.069-1.265.205l-.892.298-.613.204a3.996 3.996 0 0 0-1.563.966Z"/><path fill="#fff" stroke="#fff" stroke-width="2" d="m5.948 207.316-.212-.104a1.605 1.605 0 0 1-.3-.195l-.563-.467a7.879 7.879 0 0 1-2.778-4.949l-.851-5.917a23.375 23.375 0 0 1-.238-3.329v-25.543l1.523-12.095 2.03-13.608 3.555-13.104L13.7 113.39a220.863 220.863 0 0 1 14.218-28.224l10.155-14.111 11.17-13.608 10.156-10.08 9.647-7.56 10.663-7.56 11.17-7.56 14.217-7.055 16.756-6.552 15.233-4.536 22.849-4.032L183.29 1l20.818 1.512 20.818 4.032 22.849 7.56 16.248 7.056 1.399.833a252.582 252.582 0 0 1 31.097 21.846l12.187 11.088 12.186 13.104 11.17 15.12 9.14 16.127 6.601 14.616 5.585 15.623 3.554 13.608 1.127 6.712a138.978 138.978 0 0 1 1.92 23.023v19.066c0 .728-.056 1.455-.168 2.175l-1.259 8.123a4.605 4.605 0 0 1-4.551 3.9c-1.36 0-2.652.601-3.527 1.644l-.087.104a4.9 4.9 0 0 1-2.697 1.634l-1.834.405c-.738.163-1.491.245-2.246.245h-3.946a20.695 20.695 0 0 1-8.116-1.655l-2.034-.865-.679-.405a9.002 9.002 0 0 1-4.399-7.739V180.42c0-11.063-1.043-22.101-3.114-32.969l-.44-2.31-5.586-16.632-2.783-6.078a154.104 154.104 0 0 0-26.471-39.924l-6.796-7.42a216.207 216.207 0 0 0-24.67-18.4l-2.749-1.76-18.787-9.072-8.288-2.742a135.035 135.035 0 0 0-42.409-6.834h-11.757a232.554 232.554 0 0 0-35.026 6.726l-3.056.834-.44.175a255.026 255.026 0 0 0-38.15 18.977l-.617.505c-11.079 9.056-21.4 19-30.863 29.734l-10.663 16.128-8.124 17.135-5.585 16.128-3.047 15.12-1.015 13.103v31.248c0 2.153-2.378 4.037-4.193 5.195l-2.916 1.861c-.508.336-3.148 1.008-9.647 1.008-1.583 0-9.888-2.136-11.306-2.84Z"/><path fill="#fff" stroke="#fff" d="M181.503 69.378 83.461 234.289l-1.005 1.508h81.45l3.016-3.016 3.52-3.52 3.519-3.519 2.514-3.017 3.017-3.519 1.508-3.52 1.006-3.017-2.514 1.006-3.017.503h-3.017l-3.016-1.509-3.52-2.011-2.514-2.514-2.011-3.016-1.005-4.022v-4.023l1.005-4.525 2.514-4.022 3.52-3.519 4.022-2.514 5.53-1.006h6.536l5.531 2.514 5.028 3.017 4.022 5.53 3.017 6.536.502 6.034v5.53l-2.011 7.542-4.525 8.044-6.033 8.045h88.489L181.503 69.378Z"/><circle cx="180.497" cy="134.739" r="17.597" fill="url(#b)"/><circle cx="180.497" cy="134.739" r="17.597" stroke="#fff"/><circle cx="181" cy="184.011" r="177" stroke="#fff" stroke-width="8"/><path fill="#fff" d="M124.822 284.592c-.81 0-1.5-.27-2.07-.81-.54-.57-.81-1.26-.81-2.07 0-.96.3-1.74.9-2.34.63-.63 1.395-.945 2.295-.945.81 0 1.485.285 2.025.855.54.54.81 1.23.81 2.07 0 .93-.315 1.71-.945 2.34-.6.6-1.335.9-2.205.9Zm30.069-38.16h4.14l-23.175 42.39h-4.14l23.175-42.39Zm22.688 34.515c.81 0 1.545-.135 2.205-.405l-.45 3.51c-.9.36-1.965.54-3.195.54-1.53 0-2.79-.345-3.78-1.035-.99-.72-1.605-1.695-1.845-2.925a11.19 11.19 0 0 1-4.005 2.97c-1.53.66-3.255.99-5.175.99-2.04 0-3.855-.405-5.445-1.215a9.182 9.182 0 0 1-3.735-3.6c-.9-1.56-1.35-3.39-1.35-5.49 0-2.7.585-5.115 1.755-7.245s2.775-3.795 4.815-4.995c2.07-1.2 4.38-1.8 6.93-1.8 2.04 0 3.78.36 5.22 1.08 1.47.72 2.595 1.785 3.375 3.195l.81-4.05h4.32l-3.285 16.56c-.09.45-.135.84-.135 1.17 0 .9.255 1.59.765 2.07.51.45 1.245.675 2.205.675Zm-15.3-.135c1.77 0 3.36-.42 4.77-1.26 1.44-.87 2.55-2.07 3.33-3.6.81-1.53 1.215-3.27 1.215-5.22 0-2.13-.615-3.78-1.845-4.95-1.23-1.17-2.985-1.755-5.265-1.755-1.77 0-3.36.435-4.77 1.305-1.41.84-2.52 2.025-3.33 3.555-.81 1.53-1.215 3.27-1.215 5.22 0 2.1.615 3.75 1.845 4.95 1.26 1.17 3.015 1.755 5.265 1.755Zm32.516 3.78c-2.28 0-4.275-.42-5.985-1.26-1.71-.87-3.03-2.07-3.96-3.6-.93-1.56-1.395-3.375-1.395-5.445 0-2.67.6-5.07 1.8-7.2a12.893 12.893 0 0 1 4.995-4.995c2.13-1.23 4.545-1.845 7.245-1.845 4.71 0 7.98 1.725 9.81 5.175l-3.645 2.025c-1.26-2.28-3.42-3.42-6.48-3.42-1.77 0-3.375.435-4.815 1.305-1.41.84-2.52 2.025-3.33 3.555-.81 1.53-1.215 3.27-1.215 5.22 0 2.1.615 3.75 1.845 4.95 1.26 1.17 3.03 1.755 5.31 1.755 1.44 0 2.775-.285 4.005-.855a7.716 7.716 0 0 0 3.105-2.52l3.15 2.25c-1.11 1.53-2.595 2.73-4.455 3.6-1.86.87-3.855 1.305-5.985 1.305Zm27.427-24.345c3.27 0 5.865.915 7.785 2.745 1.95 1.83 2.925 4.44 2.925 7.83 0 .48-.015.855-.045 1.125l-19.71 3.645c.57 3.48 3.045 5.22 7.425 5.22 1.5 0 2.895-.24 4.185-.72 1.29-.48 2.355-1.155 3.195-2.025l1.845 3.105c-1.17 1.11-2.595 1.965-4.275 2.565-1.65.57-3.42.855-5.31.855-2.34 0-4.365-.42-6.075-1.26-1.71-.84-3.03-2.04-3.96-3.6-.93-1.56-1.395-3.39-1.395-5.49 0-2.64.57-5.025 1.71-7.155 1.17-2.13 2.76-3.795 4.77-4.995 2.04-1.23 4.35-1.845 6.93-1.845Zm-.135 3.6c-2.43 0-4.455.78-6.075 2.34-1.62 1.56-2.58 3.645-2.88 6.255l15.795-2.925c-.15-1.8-.84-3.195-2.07-4.185-1.23-.99-2.82-1.485-4.77-1.485Z"/><path fill="#000" d="m26.512 155.85-2.05.521-.733 6.36 1.92.978c.748.382 1.25.692 1.503.931.247.237.343.591.289 1.06a1.495 1.495 0 0 1-.56 1.006c-.327.273-.675.387-1.045.345a2.253 2.253 0 0 1-.65-.183c-.219-.098-.522-.252-.909-.462l-9.697-5.175c-.278-.147-.611-.323-.999-.526a5.672 5.672 0 0 1-.965-.631 2.106 2.106 0 0 1-.568-.79c-.137-.318-.18-.694-.13-1.128.051-.441.179-.798.383-1.07.198-.28.44-.494.723-.641.285-.155.587-.275.907-.36.314-.094.734-.208 1.261-.341l10.567-2.922c.805-.231 1.382-.327 1.731-.287.363.042.68.234.95.575.264.333.372.713.323 1.14a1.38 1.38 0 0 1-.617 1.032c-.17.103-.42.207-.75.313-.336.099-.63.184-.884.255Zm-5.067 5.774.54-4.674-6.729 1.613 6.189 3.061ZM27.058 137.771c.931.2 1.716.622 2.354 1.264.64.636 1.07 1.461 1.292 2.475.222 1.015.197 2.156-.076 3.423-.326 1.519-.882 2.711-1.668 3.575a5.198 5.198 0 0 1-2.017 1.358c-.787.285-1.505.358-2.157.218a1.368 1.368 0 0 1-.882-.596 1.381 1.381 0 0 1-.193-1.097c.07-.329.235-.583.493-.762.26-.186.613-.315 1.061-.387a6.63 6.63 0 0 0 1.364-.366 2.731 2.731 0 0 0 1.027-.791c.299-.368.52-.888.665-1.56.198-.924.146-1.719-.158-2.385-.31-.674-.786-1.081-1.43-1.219-.511-.11-.958-.041-1.341.206-.388.239-.72.589-.995 1.05a20.714 20.714 0 0 0-.96 1.86c-.496 1.05-.997 1.913-1.5 2.589-.51.667-1.11 1.157-1.8 1.47-.695.305-1.487.362-2.377.171-.847-.182-1.55-.575-2.109-1.178-.559-.604-.92-1.381-1.081-2.331-.17-.952-.127-2.02.127-3.203.204-.945.498-1.736.883-2.371.38-.643.815-1.15 1.305-1.521.483-.373.96-.618 1.433-.736a2.88 2.88 0 0 1 1.317-.047c.371.08.679.285.923.616.238.322.315.679.23 1.071-.076.357-.222.612-.438.763-.22.143-.558.279-1.01.409-.642.156-1.166.395-1.572.717-.413.322-.713.917-.9 1.785-.173.805-.134 1.495.116 2.068.245.566.616.902 1.113 1.009.308.066.592.039.853-.081.26-.12.502-.31.726-.569.224-.26.414-.53.57-.812.156-.281.396-.75.72-1.405.39-.825.782-1.561 1.177-2.208.397-.655.823-1.19 1.279-1.605a3.683 3.683 0 0 1 1.581-.868c.593-.166 1.278-.166 2.055.001ZM31.156 124.624c.91.282 1.654.771 2.233 1.468.58.69.936 1.55 1.067 2.58.13 1.03.004 2.165-.38 3.403-.46 1.484-1.12 2.621-1.98 3.412a5.187 5.187 0 0 1-2.13 1.173c-.808.214-1.53.223-2.167.026a1.369 1.369 0 0 1-.826-.672 1.38 1.38 0 0 1-.095-1.109c.1-.322.286-.56.56-.716.274-.162.638-.259 1.09-.291a6.536 6.536 0 0 0 1.392-.244c.391-.126.756-.358 1.093-.696.33-.34.597-.838.8-1.495.28-.903.299-1.699.055-2.389-.248-.7-.687-1.147-1.316-1.342-.5-.155-.95-.126-1.354.087-.408.203-.769.522-1.084.957a20.76 20.76 0 0 0-1.12 1.767c-.589 1.002-1.164 1.817-1.726 2.445-.567.619-1.208 1.054-1.923 1.305-.72.242-1.514.228-2.383-.041-.827-.257-1.493-.71-1.996-1.361-.503-.651-.793-1.457-.87-2.418-.084-.963.054-2.023.412-3.179.286-.923.65-1.684 1.09-2.282.436-.608.914-1.074 1.435-1.4.514-.328 1.011-.53 1.492-.606.48-.076.92-.052 1.317.071.362.112.65.344.864.695.209.342.254.705.135 1.088-.108.349-.277.589-.505.721-.233.122-.58.228-1.043.317-.652.098-1.195.29-1.629.575-.44.283-.792.849-1.055 1.697-.243.787-.266 1.477-.068 2.071.194.585.533.953 1.02 1.103.3.094.585.092.855-.004.27-.097.528-.264.774-.503.247-.238.46-.491.64-.757.18-.267.46-.712.842-1.336.46-.787.917-1.485 1.369-2.095.453-.617.925-1.112 1.416-1.484a3.67 3.67 0 0 1 1.653-.725c.604-.113 1.286-.051 2.046.184ZM24.184 111.977c.646-1.5 1.505-2.654 2.579-3.462a6.388 6.388 0 0 1 3.648-1.33c1.356-.071 2.79.219 4.304.871 1.118.481 2.069 1.07 2.853 1.766a7.19 7.19 0 0 1 1.791 2.386c.41.894.604 1.858.58 2.892-.025 1.035-.282 2.121-.772 3.259-.487 1.131-1.104 2.066-1.851 2.805-.754.736-1.592 1.26-2.514 1.573-.922.312-1.916.422-2.983.329-1.065-.1-2.14-.383-3.225-.851-1.111-.478-2.063-1.075-2.855-1.79-.788-.722-1.378-1.526-1.768-2.411a6.473 6.473 0 0 1-.538-2.852c.025-1.018.275-2.08.751-3.185Zm9.232-.96c-1.059-.456-2.05-.68-2.973-.672-.924.007-1.72.245-2.39.714-.673.458-1.186 1.099-1.54 1.921a4.287 4.287 0 0 0-.366 1.772 3.89 3.89 0 0 0 .405 1.695c.268.536.685 1.051 1.253 1.545.563.485 1.252.902 2.068 1.253.822.355 1.61.573 2.361.655.755.075 1.434.021 2.036-.165a4.104 4.104 0 0 0 1.538-.881c.43-.4.77-.893 1.022-1.478.323-.75.431-1.518.326-2.304-.103-.793-.467-1.542-1.091-2.248-.621-.712-1.504-1.314-2.649-1.807ZM46.127 93.68c.434.25.842.632 1.225 1.143.38.5.683 1.123.907 1.864.218.739.273 1.552.165 2.44-.108.89-.437 1.808-.985 2.757a10.063 10.063 0 0 1-1.34 1.844c-.476.51-.997.924-1.562 1.243a6.383 6.383 0 0 1-1.907.659 7.908 7.908 0 0 1-1.965.093 8.923 8.923 0 0 1-2.035-.408 10.94 10.94 0 0 1-2.023-.921c-1.098-.635-1.989-1.361-2.674-2.179-.682-.824-1.157-1.711-1.427-2.661a6.876 6.876 0 0 1-.204-2.91c.14-.986.472-1.932.995-2.837.638-1.104 1.427-1.96 2.365-2.566.938-.608 1.866-.953 2.782-1.035.91-.086 1.653.038 2.23.371.316.183.53.456.643.819.113.363.078.702-.105 1.019-.204.353-.442.571-.713.654-.268.077-.67.106-1.204.086-.883-.031-1.634.102-2.252.398-.615.29-1.128.791-1.54 1.504-.656 1.135-.749 2.29-.278 3.463.475 1.168 1.506 2.211 3.093 3.128 1.06.613 2.03.975 2.909 1.086.872.108 1.64-.011 2.303-.356.662-.345 1.205-.883 1.628-1.614.459-.794.65-1.576.575-2.348-.077-.781-.417-1.532-1.018-2.251-.292-.326-.499-.64-.622-.943-.129-.306-.082-.651.14-1.036.19-.329.468-.544.834-.647a1.324 1.324 0 0 1 1.06.141ZM51.17 92.253l-10.224-7.028c-.531-.365-.846-.76-.946-1.184-.099-.425-.017-.829.247-1.212.272-.396.623-.623 1.055-.683.43-.07.914.08 1.451.45l10.225 7.028c.537.37.853.769.948 1.2.1.424.013.834-.259 1.23-.26.377-.607.599-1.043.664-.438.055-.922-.1-1.453-.465ZM61.2 78.702l-2.016-.641-3.982 5.013 1.113 1.845c.435.72.696 1.248.786 1.584.084.332-.021.683-.315 1.053-.25.314-.585.5-1.007.559-.421.059-.778-.028-1.07-.26-.167-.133-.319-.3-.454-.498-.135-.199-.31-.49-.528-.872l-5.502-9.516c-.158-.272-.348-.597-.57-.974a5.739 5.739 0 0 1-.487-1.046 2.11 2.11 0 0 1-.065-.97c.053-.343.215-.685.486-1.027.277-.348.573-.583.89-.706.317-.133.634-.188.953-.163.323.02.643.077.96.173.316.086.733.212 1.251.376l10.516 3.1c.806.229 1.347.453 1.622.67.286.228.453.558.503.99.048.423-.061.803-.329 1.14a1.382 1.382 0 0 1-1.068.55 3.71 3.71 0 0 1-.802-.13c-.337-.094-.632-.177-.885-.25Zm-7.353 2.226 2.927-3.684-6.565-2.184 3.638 5.868ZM62.981 60.106l-2.4 2.52 8.286 7.89c.477.453.731.898.762 1.333.026.43-.122.813-.443 1.15-.326.343-.709.512-1.15.507-.436-.01-.89-.239-1.361-.688l-8.286-7.888-2.4 2.52c-.375.394-.74.606-1.094.635-.359.024-.681-.1-.966-.371-.296-.282-.436-.603-.42-.963.022-.365.213-.737.574-1.116l6.992-7.344c.38-.4.75-.611 1.109-.635.364-.03.689.092.974.364.285.271.422.59.41.954-.016.36-.212.738-.587 1.132ZM73.521 65.959l-8.424-9.11c-.438-.472-.658-.927-.661-1.363-.004-.436.166-.812.507-1.128.353-.326.746-.47 1.18-.433.435.028.874.28 1.316.759l8.424 9.109c.443.478.663.938.661 1.379.003.436-.171.817-.524 1.142a1.49 1.49 0 0 1-1.164.419c-.439-.043-.877-.3-1.315-.774ZM74.947 45.82c1.286-1.007 2.593-1.608 3.923-1.803a6.396 6.396 0 0 1 3.84.58c1.224.588 2.344 1.53 3.36 2.827.75.958 1.303 1.93 1.658 2.917.354.987.497 1.971.43 2.953a6.477 6.477 0 0 1-.879 2.816c-.516.896-1.263 1.726-2.238 2.49-.97.76-1.96 1.285-2.969 1.576-1.014.285-2 .343-2.96.176-.958-.168-1.884-.548-2.776-1.14-.886-.598-1.694-1.362-2.423-2.292-.746-.953-1.295-1.933-1.648-2.94-.346-1.01-.479-1.999-.397-2.963.081-.965.38-1.885.894-2.76.51-.883 1.238-1.694 2.185-2.436Zm8.564 3.58c-.711-.907-1.474-1.578-2.288-2.014-.814-.436-1.627-.608-2.44-.518-.81.08-1.567.396-2.272.948a4.289 4.289 0 0 0-1.17 1.38 3.888 3.888 0 0 0-.457 1.682c-.022.6.098 1.252.36 1.957.262.695.667 1.392 1.215 2.09.551.706 1.138 1.274 1.759 1.707.626.428 1.248.705 1.865.83.619.116 1.21.104 1.772-.037a4.326 4.326 0 0 0 1.606-.807 4.282 4.282 0 0 0 1.39-1.867c.289-.745.329-1.577.119-2.495-.204-.922-.69-1.874-1.46-2.855ZM90.44 37.184l10.085 4.698-4.903-7.982c-.319-.519-.447-.974-.385-1.365.065-.401.287-.718.665-.95.39-.24.78-.298 1.166-.175.383.118.734.436 1.053.955l6.483 10.554c.723 1.177.596 2.066-.38 2.666-.244.15-.486.248-.726.295a1.89 1.89 0 0 1-.752.008 3.917 3.917 0 0 1-.802-.239 61.91 61.91 0 0 1-.827-.362l-9.9-4.685 4.83 7.863c.314.512.433.973.356 1.382-.076.408-.3.727-.673.956-.385.236-.773.294-1.166.174-.397-.126-.751-.443-1.062-.95l-6.36-10.352c-.27-.439-.432-.814-.488-1.124a1.702 1.702 0 0 1 .166-1.022c.16-.342.395-.609.707-.8.244-.15.475-.237.695-.263a1.69 1.69 0 0 1 .655.04c.216.051.457.142.723.273.271.128.552.262.84.404ZM113.82 22.798c1.505-.633 2.924-.869 4.259-.708a6.397 6.397 0 0 1 3.551 1.572c1.026.888 1.859 2.092 2.498 3.61.472 1.122.749 2.206.831 3.251a7.171 7.171 0 0 1-.362 2.962 6.472 6.472 0 0 1-1.588 2.486c-.735.728-1.673 1.333-2.815 1.813-1.135.478-2.228.724-3.279.739-1.053.008-2.02-.195-2.901-.61-.881-.413-1.674-1.024-2.379-1.83-.698-.81-1.276-1.76-1.734-2.849-.47-1.115-.742-2.205-.816-3.27-.069-1.066.064-2.054.396-2.963a6.467 6.467 0 0 1 1.589-2.428c.724-.717 1.641-1.308 2.75-1.775Zm7.319 5.708c-.447-1.063-1.006-1.911-1.677-2.546-.671-.634-1.41-1.015-2.217-1.142-.803-.136-1.617-.03-2.442.317a4.282 4.282 0 0 0-1.492 1.024 3.892 3.892 0 0 0-.884 1.502c-.178.573-.234 1.233-.168 1.982.07.74.278 1.519.622 2.337.347.826.763 1.528 1.248 2.11.492.577 1.019 1.008 1.582 1.292a4.106 4.106 0 0 0 1.719.43c.587.01 1.174-.11 1.761-.356a4.281 4.281 0 0 0 1.832-1.435c.476-.643.733-1.435.772-2.376.046-.944-.173-1.99-.656-3.139ZM136.099 17.87l-6.011 1.834 1.175 3.853 5.025-1.533c.466-.142.844-.141 1.135.002.295.135.496.377.603.726.107.35.075.662-.096.939-.17.276-.484.485-.943.625l-5.025 1.532 1.514 4.963c.193.63.192 1.143-.002 1.54-.189.386-.506.648-.951.784-.452.138-.869.096-1.251-.124-.374-.223-.657-.646-.847-1.27l-3.536-11.589c-.134-.438-.177-.814-.131-1.128.045-.32.185-.584.422-.791.241-.216.577-.39 1.009-.521l7.192-2.195c.486-.148.879-.148 1.179 0 .305.14.51.383.617.733.108.356.076.68-.097.973-.168.283-.495.499-.981.647ZM161.424 21.296c.081.495.045 1.052-.108 1.672-.146.612-.436 1.24-.868 1.884-.433.636-1.027 1.194-1.783 1.673-.757.48-1.675.807-2.757.984-.82.134-1.578.178-2.275.132a6.538 6.538 0 0 1-1.952-.421 6.405 6.405 0 0 1-1.718-1.058 7.86 7.86 0 0 1-1.316-1.462 8.988 8.988 0 0 1-.975-1.832 10.909 10.909 0 0 1-.568-2.15c-.205-1.25-.208-2.4-.009-3.449.206-1.05.591-1.98 1.155-2.79a6.875 6.875 0 0 1 2.123-2 7.819 7.819 0 0 1 2.825-1.028c1.258-.206 2.419-.138 3.484.203 1.064.342 1.918.84 2.563 1.497.643.65 1.018 1.303 1.125 1.96.059.361-.016.7-.225 1.017-.21.317-.495.505-.855.564-.403.066-.723.02-.959-.137-.229-.159-.505-.45-.829-.877-.536-.703-1.114-1.2-1.734-1.49-.614-.292-1.327-.372-2.14-.239-1.293.211-2.245.871-2.855 1.98-.603 1.106-.757 2.565-.461 4.374.197 1.209.532 2.188 1.002 2.938.47.744 1.048 1.262 1.735 1.557.687.294 1.447.373 2.281.237.905-.148 1.632-.496 2.181-1.043.555-.555.921-1.293 1.097-2.214.067-.432.179-.791.335-1.078.155-.294.452-.476.89-.548.375-.061.718.017 1.029.235.311.217.499.52.562.91ZM171.768 9.483c1.631-.078 3.046.187 4.244.796a6.396 6.396 0 0 1 2.797 2.694c.659 1.187 1.028 2.603 1.108 4.248.058 1.217-.053 2.33-.334 3.34a7.18 7.18 0 0 1-1.357 2.657 6.465 6.465 0 0 1-2.344 1.79c-.94.433-2.028.679-3.266.739-1.23.059-2.341-.085-3.333-.431-.992-.354-1.831-.877-2.517-1.568-.686-.69-1.221-1.536-1.606-2.536-.378-1-.596-2.09-.652-3.27-.059-1.209.06-2.326.355-3.351.301-1.026.764-1.908 1.388-2.648a6.477 6.477 0 0 1 2.326-1.736c.926-.425 1.99-.666 3.191-.724Zm4.918 7.873c-.056-1.152-.29-2.141-.702-2.967-.413-.826-.976-1.437-1.691-1.833-.708-.403-1.508-.583-2.403-.54-.636.03-1.221.18-1.752.45a3.877 3.877 0 0 0-1.345 1.108c-.364.476-.644 1.077-.838 1.804-.188.718-.26 1.521-.218 2.408.043.895.193 1.697.45 2.41.263.71.611 1.296 1.041 1.756.438.452.927.783 1.468.994.548.21 1.14.3 1.777.27a4.284 4.284 0 0 0 2.213-.72c.667-.441 1.18-1.097 1.54-1.967.366-.871.52-1.929.46-3.173ZM189.878 23.144l-1.794-10.19-.784 10.843c-.043.6-.212 1.04-.505 1.321-.286.28-.65.405-1.093.373-.428-.03-.768-.203-1.018-.515-.25-.32-.353-.783-.309-1.39l.899-12.429c.05-.685.262-1.133.636-1.343.375-.217.866-.304 1.473-.26l.985.072c.593.043 1.018.127 1.274.253.264.127.45.335.559.622.108.288.222.752.34 1.393l1.66 8.768 2.905-8.438c.209-.617.389-1.06.537-1.329.149-.27.359-.448.632-.536.279-.087.715-.11 1.308-.067l.985.072c.607.043 1.081.2 1.42.468.34.262.486.736.436 1.421l-.899 12.429c-.043.6-.212 1.04-.505 1.32-.286.281-.654.405-1.104.373a1.34 1.34 0 0 1-1.006-.525c-.25-.32-.353-.78-.31-1.38l.784-10.843-3.241 9.825a19.2 19.2 0 0 1-.511 1.406 1.941 1.941 0 0 1-.628.784c-.296.23-.691.327-1.184.292-.372-.027-.68-.132-.925-.315a1.698 1.698 0 0 1-.556-.654 3.707 3.707 0 0 1-.283-.85c-.056-.313-.116-.636-.178-.971ZM210.49 21.878l-2.876-.515-.786 4.388c-.112.628-.345 1.077-.7 1.348a1.475 1.475 0 0 1-1.208.286c-.472-.085-.824-.311-1.056-.68-.231-.376-.291-.875-.18-1.495l2.14-11.948c.124-.691.371-1.156.741-1.396.37-.239.901-.297 1.592-.173l4.028.722c1.192.213 2.092.469 2.7.767.603.29 1.097.68 1.482 1.171a4 4 0 0 1 .789 1.691c.133.635.134 1.323.001 2.063-.283 1.58-.984 2.69-2.103 3.334-1.118.636-2.639.782-4.564.437Zm.512-7.242-2.115-.378-.849 4.737 2.115.378c.74.133 1.371.166 1.892.1.529-.066.955-.252 1.279-.557.324-.306.537-.744.639-1.316.123-.683.021-1.276-.303-1.778-.37-.54-1.255-.934-2.658-1.186ZM218.512 23.1l2.024-7.298c.172-.62.439-1.048.802-1.282.369-.232.781-.285 1.236-.159.477.132.81.392 1 .779.196.389.209.894.036 1.515l-2.069 7.463c-.236.85-.34 1.586-.312 2.21a2.6 2.6 0 0 0 .647 1.607c.397.444 1.03.787 1.899 1.028 1.201.333 2.138.251 2.811-.246.675-.504 1.192-1.405 1.552-2.702l2.087-7.526c.174-.628.441-1.055.802-1.282.362-.234.774-.287 1.236-.159.463.128.792.387.989.776.206.384.222.89.047 1.518l-2.023 7.298c-.33 1.187-.722 2.145-1.176 2.873-.448.73-1.076 1.307-1.884 1.73a5.28 5.28 0 0 1-2.236.583c-.796.032-1.685-.088-2.665-.36-1.166-.323-2.136-.726-2.909-1.208-.771-.488-1.349-1.069-1.735-1.74-.384-.68-.586-1.464-.607-2.354-.019-.897.13-1.918.448-3.064ZM245.54 24.997l-3.255-1.234-4.056 10.697c-.234.616-.545 1.023-.934 1.22-.386.19-.797.203-1.232.038-.442-.168-.746-.455-.913-.863-.161-.406-.125-.913.106-1.523l4.056-10.697-3.254-1.234c-.509-.193-.845-.447-1.009-.762-.162-.321-.173-.666-.033-1.034.145-.382.386-.635.724-.76.345-.122.762-.09 1.251.095l9.482 3.596c.515.195.854.454 1.015.776.169.324.183.67.043 1.038s-.38.618-.721.75c-.338.124-.761.09-1.27-.103ZM244.232 36.98l5.136-11.294c.267-.587.601-.966 1.001-1.138.401-.172.813-.161 1.237.031.437.199.722.506.856.92.143.412.08.914-.19 1.508L247.137 38.3c-.27.593-.609.974-1.016 1.143-.4.172-.819.158-1.256-.04a1.49 1.49 0 0 1-.836-.911c-.131-.422-.063-.926.203-1.513ZM260.038 30.854l.924 11.087 4.498-8.217c.292-.534.623-.871.994-1.011.38-.143.765-.108 1.155.105.402.22.645.529.729.926.088.391-.014.854-.306 1.388l-5.947 10.864c-.664 1.213-1.498 1.544-2.503.994a2.185 2.185 0 0 1-.617-.485 1.893 1.893 0 0 1-.38-.648 3.969 3.969 0 0 1-.19-.815 74.261 74.261 0 0 1-.097-.898l-.843-10.92-4.431 8.094c-.289.528-.63.86-1.023.996-.392.136-.781.099-1.164-.11-.395-.218-.639-.526-.73-.927-.087-.407.012-.871.297-1.393l5.834-10.657c.248-.452.492-.78.734-.982a1.7 1.7 0 0 1 .97-.363c.376-.031.724.041 1.045.217.251.137.442.295.573.473.138.181.235.377.291.588.063.213.103.468.121.764.024.299.046.609.066.93ZM279.171 52.158l-1.737 2.469c-.231.328-.449.569-.653.722-.201.148-.445.24-.732.274a3.94 3.94 0 0 1-.98-.007c-1.076-.126-2.042-.346-2.898-.66a11.088 11.088 0 0 1-2.558-1.367c-.99-.697-1.785-1.483-2.385-2.36a6.97 6.97 0 0 1-1.148-2.793c-.166-.983-.114-1.997.157-3.041.276-1.04.773-2.07 1.49-3.09.705-1 1.5-1.812 2.383-2.434.884-.621 1.82-1.018 2.808-1.19.988-.171 2.005-.117 3.051.164 1.05.275 2.102.783 3.156 1.525.867.61 1.552 1.267 2.055 1.97.507.7.844 1.37 1.013 2.014.168.644.22 1.237.155 1.778-.066.54-.205.963-.42 1.268a1.373 1.373 0 0 1-.962.583c-.401.06-.771-.03-1.111-.27a1.478 1.478 0 0 1-.623-1.186c.033-.73.028-1.303-.013-1.717-.041-.415-.19-.843-.447-1.287-.252-.44-.67-.865-1.256-1.277-.603-.425-1.216-.699-1.839-.822a4.054 4.054 0 0 0-1.858.046c-.61.157-1.207.46-1.793.905-.579.45-1.114 1.024-1.605 1.721-1.063 1.511-1.536 2.917-1.417 4.217.124 1.305.806 2.394 2.048 3.268a7.181 7.181 0 0 0 1.862.956c.645.217 1.342.37 2.093.46l1.471-2.09-2.02-1.422c-.486-.342-.804-.675-.953-.998-.143-.32-.09-.656.157-1.007.202-.287.471-.452.808-.495.343-.04.693.067 1.05.319l2.961 2.083c.363.255.648.504.854.746.207.241.308.527.303.857.002.333-.154.723-.467 1.168ZM300.182 61.636l-5.222-4.937-2.657 2.81 4.809 4.546c.354.334.541.664.56.987.03.324-.079.615-.325.876-.246.26-.533.392-.862.396-.325 0-.666-.17-1.025-.51l-4.81-4.546-3.077 3.256 5.403 5.106c.364.344.556.689.576 1.032.03.344-.088.656-.353.938-.256.27-.559.403-.909.397-.339-.005-.691-.18-1.055-.524l-6.301-5.955c-.505-.477-.763-.933-.775-1.369-.007-.43.225-.895.697-1.395l8.132-8.603c.315-.333.62-.557.915-.672.301-.12.6-.128.896-.025.307.103.625.309.952.619l6.121 5.785c.37.349.564.69.584 1.024.029.334-.081.633-.332.899-.256.27-.553.403-.893.397-.33-.006-.679-.183-1.049-.532ZM306.349 67.116l-2.948 10.727 7.051-6.167c.458-.4.886-.603 1.282-.607.406-.003.755.162 1.048.497.301.345.423.718.366 1.12-.052.398-.307.797-.765 1.198l-9.323 8.154c-1.041.91-1.938.933-2.692.07a2.178 2.178 0 0 1-.412-.666 1.894 1.894 0 0 1-.134-.74c.003-.269.037-.546.102-.83.07-.29.142-.582.218-.877l2.966-10.543-6.945 6.075c-.453.396-.888.59-1.303.582-.416-.007-.767-.175-1.055-.504-.297-.34-.419-.713-.367-1.12.058-.413.311-.815.759-1.206l9.145-7.999c.388-.339.73-.562 1.027-.67a1.7 1.7 0 0 1 1.035-.006c.364.1.666.288.907.563.188.216.314.43.376.642.066.217.09.435.07.651a3.504 3.504 0 0 1-.15.76c-.08.288-.166.587-.258.896ZM316.982 93.726l-2.482 1.718c-.33.228-.617.379-.862.453-.239.07-.499.07-.781.004a3.935 3.935 0 0 1-.917-.345c-.966-.49-1.797-1.03-2.493-1.62a11.074 11.074 0 0 1-1.929-2.165c-.689-.995-1.164-2.008-1.424-3.038a6.972 6.972 0 0 1-.115-3.017c.184-.98.583-1.914 1.197-2.8.619-.882 1.44-1.676 2.465-2.386 1.007-.696 2.033-1.184 3.077-1.462 1.044-.279 2.059-.328 3.045-.148.987.18 1.923.581 2.807 1.205.891.62 1.703 1.46 2.437 2.52.603.872 1.019 1.725 1.248 2.56.235.83.32 1.576.256 2.239-.064.663-.22 1.236-.467 1.721-.248.485-.525.834-.832 1.046-.329.228-.698.3-1.104.216a1.487 1.487 0 0 1-.95-.636 1.466 1.466 0 0 1-.246-.64 1.52 1.52 0 0 1 .071-.69c.282-.674.476-1.212.58-1.615.104-.404.112-.858.024-1.363-.084-.499-.33-1.043-.737-1.632-.42-.606-.901-1.075-1.443-1.405a4.053 4.053 0 0 0-1.76-.598c-.627-.063-1.292.014-1.995.23-.7.224-1.4.577-2.1 1.062-1.52 1.052-2.448 2.208-2.786 3.47-.334 1.267-.068 2.525.795 3.773.42.607.893 1.12 1.419 1.54.53.426 1.131.81 1.805 1.154l2.102-1.454-1.406-2.032c-.338-.489-.521-.91-.549-1.266-.024-.35.14-.646.494-.89.288-.2.598-.262.929-.186.335.081.627.302.876.66l2.06 2.978c.252.365.434.696.544.995.111.297.107.6-.011.908-.113.314-.394.626-.842.936ZM315.203 100.177l10.752-6.19c.559-.322 1.051-.436 1.477-.343.426.094.755.343.987.746.239.416.293.831.16 1.247-.123.418-.467.789-1.032 1.114l-10.752 6.191c-.565.325-1.062.438-1.492.338-.425-.094-.758-.349-.997-.764a1.491 1.491 0 0 1-.15-1.228c.139-.419.488-.789 1.047-1.111ZM331.633 104.437l-5.725 9.538 8.45-4.042c.549-.263 1.015-.343 1.397-.24.393.106.685.359.876.76.198.413.215.806.052 1.178-.157.369-.51.684-1.059.947l-11.173 5.346c-1.247.596-2.118.378-2.612-.656a2.198 2.198 0 0 1-.218-.753 1.887 1.887 0 0 1 .071-.749 3.96 3.96 0 0 1 .321-.773c.145-.26.294-.521.446-.785l5.693-9.356-8.324 3.982c-.542.26-1.013.33-1.411.211-.399-.119-.692-.376-.881-.77-.194-.407-.211-.799-.051-1.178.167-.381.518-.7 1.054-.957l10.96-5.243c.465-.223.855-.346 1.169-.369.35-.016.683.074 1 .272.323.195.564.457.721.786.124.259.187.498.189.719.006.228-.03.444-.107.647-.074.21-.19.441-.348.691-.155.257-.318.521-.49.794ZM339.951 126.808l-2.453-6.755-3.635 1.32 2.259 6.22c.166.457.186.835.058 1.133-.119.302-.347.515-.683.637-.337.122-.653.111-.949-.033-.29-.146-.519-.451-.687-.916l-2.26-6.219-4.21 1.529 2.538 6.987c.171.471.188.865.052 1.181-.128.321-.373.547-.736.679-.351.127-.681.11-.991-.052-.301-.157-.537-.471-.708-.943l-2.96-8.148c-.237-.653-.263-1.176-.079-1.571.187-.388.603-.699 1.25-.934l11.126-4.041c.431-.157.804-.22 1.12-.19.322.028.593.154.812.379.228.23.419.557.573.981l2.876 7.916c.173.478.194.87.062 1.177-.124.312-.357.53-.7.654-.35.127-.676.112-.977-.045-.291-.153-.524-.469-.698-.946ZM343.761 140.565l-1.855-6.943-3.736.998 1.708 6.393c.125.471.111.849-.042 1.134-.145.291-.39.483-.736.575-.346.092-.66.054-.943-.115-.275-.171-.477-.495-.604-.973l-1.708-6.393-4.327 1.156 1.918 7.182c.129.484.112.878-.052 1.181-.155.308-.419.512-.793.612-.359.096-.687.05-.981-.138-.287-.183-.494-.517-.624-1.001l-2.237-8.375c-.179-.672-.159-1.196.059-1.573.22-.37.662-.643 1.326-.821l11.437-3.054c.443-.119.82-.149 1.132-.092.319.056.577.206.776.449.207.249.369.591.485 1.027l2.173 8.137c.132.491.118.884-.041 1.178-.15.3-.401.496-.754.591-.359.096-.682.052-.969-.131-.277-.178-.481-.512-.612-1.004ZM338.854 149.76l-.19-1.101-4.986.862c-.656.113-1.165.052-1.525-.184-.361-.236-.581-.586-.662-1.052-.086-.501.009-.917.286-1.249.277-.331.73-.551 1.358-.659l11.94-2.063c.678-.117 1.194-.05 1.55.201.356.251.593.715.71 1.392l.883 5.113c.122.706.194 1.315.217 1.827.031.511-.011.983-.125 1.417a3.984 3.984 0 0 1-.656 1.443c-.316.44-.712.799-1.187 1.077a4.376 4.376 0 0 1-1.548.573c-1.157.2-2.138.031-2.943-.505-.804-.53-1.465-1.433-1.983-2.71-.2.609-.546 1.217-1.037 1.825a13.075 13.075 0 0 1-1.618 1.675c-.58.514-1.116.927-1.607 1.237-.483.316-.824.491-1.021.525a1.123 1.123 0 0 1-.649-.095 1.328 1.328 0 0 1-.557-.449 1.662 1.662 0 0 1-.315-.752c-.061-.353-.028-.664.1-.933.121-.268.293-.512.517-.732.224-.214.558-.511 1.001-.893l1.878-1.622c.691-.584 1.207-1.091 1.547-1.52.341-.423.554-.83.639-1.223.085-.392.079-.867-.017-1.425Zm6.831.673-.501-2.9-4.266.737.487 2.815c.13.755.304 1.38.52 1.873.223.492.513.845.87 1.06.365.22.822.283 1.373.187.43-.074.789-.249 1.076-.523.294-.276.488-.623.584-1.039.091-.394.044-1.13-.143-2.21ZM339.351 171.928c-.949.077-1.822-.1-2.619-.531-.796-.424-1.446-1.09-1.951-1.997-.504-.908-.809-2.007-.914-3.299-.126-1.549.063-2.851.567-3.905a5.183 5.183 0 0 1 1.54-1.881c.67-.5 1.338-.777 2.002-.831.385-.031.724.074 1.017.316.3.249.467.58.501.994.027.336-.057.626-.253.872-.195.253-.496.479-.904.677a6.648 6.648 0 0 0-1.201.744 2.733 2.733 0 0 0-.755 1.053c-.18.438-.242 1-.187 1.686.077.942.356 1.688.839 2.238.491.556 1.064.808 1.721.755.521-.042.929-.237 1.225-.584.302-.341.519-.772.649-1.293.131-.513.259-1.199.383-2.057.173-1.149.403-2.12.691-2.912.295-.785.728-1.428 1.298-1.926.578-.493 1.321-.776 2.227-.849.864-.07 1.65.103 2.359.52.71.416 1.279 1.056 1.708 1.92.437.862.704 1.897.801 3.103.079.964.025 1.805-.161 2.525-.178.725-.449 1.336-.811 1.833-.355.496-.741.868-1.159 1.118-.418.249-.834.391-1.248.424a1.518 1.518 0 0 1-1.061-.323 1.28 1.28 0 0 1-.531-.96c-.029-.364.037-.649.2-.856.171-.201.454-.429.85-.684.569-.333 1.002-.713 1.298-1.14.303-.427.419-1.083.347-1.968-.067-.821-.303-1.47-.708-1.947-.397-.471-.849-.685-1.356-.644a1.32 1.32 0 0 0-.793.323c-.214.19-.392.441-.531.754-.14.313-.244.627-.312.941-.068.315-.163.833-.284 1.554-.135.902-.298 1.72-.49 2.454-.192.741-.446 1.376-.762 1.905a3.686 3.686 0 0 1-1.264 1.288c-.52.329-1.175.526-1.968.59Z"/><path fill="#010101" d="m340.71 184.885-2.21.063 3.181-7.953 1.889-.054 3.63 7.758-2.226.064-2.265-5.414-1.999 5.536Zm6.676 4.67-9.067-1.929a8.92 8.92 0 0 1-.708-.175.793.793 0 0 1-.406-.238c-.102-.107-.156-.267-.162-.48-.015-.531.206-.803.664-.816.12-.004.421.04.903.13l9.066 1.921c.483.101.814.201.994.3.18.099.274.3.283.602.007.26-.05.46-.171.599-.121.144-.29.219-.509.225-.162.005-.457-.041-.887-.139Zm-5.085 9.118-3.646-7.758 2.21-.063 2.313 5.428 1.967-5.551 2.194-.062-3.164 7.953-1.874.053ZM15.916 180.863l-2.21.063 3.18-7.954 1.89-.054 3.63 7.759-2.226.064-2.265-5.414-1.999 5.536Zm6.675 4.67-9.066-1.929a9.479 9.479 0 0 1-.709-.175.795.795 0 0 1-.405-.239c-.102-.106-.156-.266-.162-.479-.016-.532.206-.804.664-.817.12-.003.42.04.902.131l9.067 1.921c.482.101.813.201.993.3.18.099.275.3.283.602.008.26-.05.459-.17.598-.121.145-.29.22-.51.226-.161.005-.457-.042-.887-.139Zm-5.085 9.118-3.645-7.758 2.21-.063 2.312 5.428 1.968-5.551 2.194-.063-3.165 7.953-1.874.054Z"/><path fill="#000" d="M81.585 315.758a3.056 3.056 0 0 1-.798 1.037c-.357.316-.806.558-1.347.726-.54.162-1.141.177-1.805.043-.664-.133-1.36-.462-2.085-.988a8.903 8.903 0 0 1-1.423-1.263 6.626 6.626 0 0 1-.986-1.436 7.017 7.017 0 0 1-.567-1.717 8.458 8.458 0 0 1-.149-1.744 8.89 8.89 0 0 1 .22-1.786c.139-.587.34-1.171.602-1.753.426-.946.929-1.705 1.508-2.277.584-.57 1.224-.954 1.918-1.153a4.231 4.231 0 0 1 2.151-.058c.738.165 1.453.498 2.146 1a6.956 6.956 0 0 1 2 2.202c.49.857.783 1.692.882 2.507.1.81.039 1.463-.185 1.96a.935.935 0 0 1-.582.536c-.265.084-.518.039-.76-.136-.27-.196-.442-.416-.515-.66-.068-.24-.106-.597-.113-1.069-.012-.782-.141-1.452-.386-2.012-.24-.556-.634-1.032-1.18-1.427-.868-.629-1.729-.759-2.58-.391-.848.372-1.58 1.241-2.197 2.609-.412.913-.641 1.757-.688 2.53-.044.769.075 1.454.358 2.055a3.884 3.884 0 0 0 1.264 1.51c.608.44 1.197.642 1.766.608.577-.036 1.12-.305 1.63-.808.23-.244.454-.415.674-.511.222-.101.48-.045.775.167.251.183.423.438.514.766.091.328.07.639-.062.933ZM91.35 311.317c1.132.709 2.004 1.571 2.618 2.587a6.869 6.869 0 0 1 1.015 3.314c.058 1.191-.155 2.415-.64 3.672-.358.929-.798 1.702-1.32 2.319-.521.617-1.118 1.061-1.79 1.333-.672.271-1.397.346-2.176.224-.78-.122-1.599-.451-2.458-.99-.854-.535-1.56-1.164-2.12-1.888a7.026 7.026 0 0 1-1.194-2.347 7.553 7.553 0 0 1-.259-2.636 9.62 9.62 0 0 1 .629-2.733c.356-.923.802-1.696 1.337-2.318.541-.618 1.144-1.055 1.81-1.31.665-.255 1.38-.319 2.145-.193.768.121 1.568.443 2.403.966Zm.758 8.152c.34-.88.504-1.724.495-2.531-.01-.806-.192-1.525-.547-2.155a4.136 4.136 0 0 0-1.453-1.531c-.442-.277-.887-.441-1.336-.491a2.406 2.406 0 0 0-1.275.189c-.403.181-.79.496-1.16.943-.362.445-.674 1.006-.936 1.684a7.41 7.41 0 0 0-.484 1.998 5.33 5.33 0 0 0 .132 1.793c.149.541.372 1.017.67 1.428.303.414.675.759 1.117 1.036.566.354 1.145.524 1.737.508.597-.013 1.16-.258 1.689-.734.533-.474.984-1.186 1.35-2.137ZM98.933 316.05l2.999 1.605c.78.418 1.424.854 1.931 1.308a5.198 5.198 0 0 1 1.234 1.691c.829 1.725.882 3.703.158 5.932a9.832 9.832 0 0 1-.832 1.919 5.376 5.376 0 0 1-1.084 1.353 4.146 4.146 0 0 1-1.377.794c-.4.132-.81.191-1.23.176a4.49 4.49 0 0 1-1.292-.25 9.807 9.807 0 0 1-1.438-.642l-2.999-1.605c-.418-.224-.712-.459-.88-.706a1.322 1.322 0 0 1-.232-.801c.02-.284.094-.624.222-1.02l2.916-8.987c.174-.535.41-.863.71-.983.3-.121.698-.049 1.194.216Zm.254 2.442-2.7 8.318 1.745.933c.382.205.685.354.91.448.224.094.466.158.728.193.261.036.503.018.726-.052.998-.291 1.775-1.294 2.332-3.011.393-1.209.516-2.206.37-2.99-.14-.782-.432-1.386-.876-1.813-.441-.433-1.014-.837-1.716-1.213l-1.519-.813ZM115.478 326.376l-5.348-2.444-.832 3.053 4.925 2.25c.362.166.607.376.736.632.135.252.164.52.087.803-.077.282-.229.474-.454.574-.223.095-.519.059-.887-.109l-4.924-2.251-.963 3.537 5.532 2.527c.373.171.627.392.763.664.142.268.172.555.089.861-.08.294-.242.49-.484.589-.236.096-.541.058-.914-.112l-6.451-2.948c-.517-.236-.857-.528-1.02-.876-.157-.346-.162-.79-.014-1.332l2.545-9.345c.099-.362.23-.633.393-.813a.804.804 0 0 1 .607-.285c.248-.007.54.066.876.219l6.267 2.864c.378.173.634.391.765.655.139.26.169.535.091.823-.08.294-.238.489-.474.585-.229.092-.533.052-.911-.121ZM124.403 334.508c-.147.706-.514 1.218-1.102 1.537-.588.319-1.215.358-1.883.118-.672-.242-1.194-.695-1.566-1.359-.371-.664-.484-1.348-.337-2.054.145-.7.504-1.215 1.077-1.546.579-.334 1.208-.379 1.886-.135.435.157.82.418 1.152.784.333.367.568.788.707 1.263.138.475.16.939.066 1.392ZM138.02 345.126l-3.808-1.001c-.549-.144-.925-.372-1.127-.684-.196-.317-.254-.75-.175-1.301l1.382-9.587c.081-.562.258-.934.531-1.115.279-.185.688-.207 1.227-.066l4.037 1.062c.595.156 1.106.329 1.531.519.426.191.796.438 1.111.744.268.257.496.555.683.893.187.332.316.682.386 1.049.072.362.081.729.027 1.1-.184 1.276-.941 2.046-2.273 2.309 1.56.965 2.23 2.218 2.007 3.761-.102.713-.374 1.31-.813 1.79a2.825 2.825 0 0 1-1.627.882 5.045 5.045 0 0 1-1.359.003 14.05 14.05 0 0 1-1.74-.358Zm.629-5.712-2.626-.69-.537 3.723 2.712.713c1.706.448 2.649.043 2.83-1.215.093-.644-.061-1.169-.461-1.575-.4-.406-1.039-.725-1.918-.956Zm-1.884-5.84-.475 3.297 2.312.607c.629.166 1.122.232 1.48.2.363-.031.66-.194.89-.488.177-.207.287-.461.331-.762.093-.644-.07-1.129-.487-1.455-.417-.333-1.085-.619-2.003-.861l-2.048-.538ZM144.079 341.124l.586-6.168c.049-.525.202-.898.457-1.117.261-.218.582-.291.962-.22.397.075.699.265.904.571.211.307.292.723.242 1.248l-.599 6.308c-.068.718-.047 1.333.062 1.847.116.508.363.935.74 1.279.379.338.93.575 1.656.712 1.002.188 1.736.053 2.201-.406.466-.464.751-1.245.856-2.341l.603-6.362c.051-.53.203-.902.458-1.116.255-.219.576-.292.962-.22.386.073.684.262.895.569.218.302.301.719.251 1.25l-.586 6.168c-.095 1.004-.272 1.822-.532 2.456a3.418 3.418 0 0 1-1.256 1.563 3.847 3.847 0 0 1-1.696.643c-.629.084-1.353.049-2.171-.105-.973-.183-1.801-.446-2.483-.788-.682-.348-1.224-.785-1.625-1.312-.401-.532-.672-1.165-.814-1.898-.141-.739-.165-1.593-.073-2.561ZM156.112 347.17l.613-10.133c.031-.526.174-.905.428-1.136.254-.231.57-.321.948-.27.389.053.694.227.916.522.229.291.327.702.294 1.234l-.613 10.133c-.032.532-.178.914-.438 1.144-.254.231-.575.32-.964.267a1.311 1.311 0 0 1-.899-.52c-.222-.301-.317-.715-.285-1.241ZM163.215 337.8l-.304 9.373 5.268.487c.42.039.738.171.953.397.221.226.326.494.316.804-.01.317-.13.564-.358.743-.228.172-.555.239-.981.2l-6.275-.58c-.566-.053-.97-.216-1.213-.491-.236-.275-.346-.693-.327-1.255l.322-9.918c.017-.527.147-.911.389-1.153.248-.242.564-.345.949-.309.391.036.702.197.932.483.237.28.347.686.329 1.219ZM171.17 337.029l3.4.089c.884.023 1.644.125 2.278.306.634.18 1.212.503 1.732.968 1.353 1.183 2.042 2.947 2.067 5.29.008.774-.052 1.478-.18 2.113a6.124 6.124 0 0 1-.605 1.715c-.276.503-.631.95-1.066 1.343a4.258 4.258 0 0 1-1.126.717 4.985 4.985 0 0 1-1.322.361 9.965 9.965 0 0 1-1.59.073l-3.4-.09c-.474-.012-.832-.092-1.074-.239a1.088 1.088 0 0 1-.481-.618c-.073-.266-.112-.607-.116-1.023l-.1-9.447c-.005-.563.116-.967.365-1.212.25-.245.655-.361 1.218-.346Zm1.032 2.092.092 8.744 1.977.052c.433.012.773.009 1.019-.008.245-.017.5-.069.762-.156.263-.087.49-.213.681-.377.865-.716 1.288-1.976 1.269-3.78-.013-1.272-.216-2.229-.61-2.872-.387-.643-.863-1.056-1.427-1.241-.564-.19-1.245-.296-2.041-.317l-1.722-.045ZM190.537 343.228a2.466 2.466 0 0 1-.639 1.886 2.531 2.531 0 0 1-1.778.88 2.494 2.494 0 0 1-1.878-.627 2.506 2.506 0 0 1-.887-1.78 2.522 2.522 0 0 1 .613-1.884 2.463 2.463 0 0 1 1.776-.898c.462-.032.903.055 1.323.261.42.205.762.502 1.025.889.263.387.411.811.445 1.273ZM205.093 342.81l-2.36.382.477 3.616c.069.517-.001.929-.209 1.235-.208.307-.497.49-.867.55-.387.063-.717-.017-.988-.24-.273-.229-.443-.599-.51-1.111l-1.299-9.846c-.075-.569.001-.997.229-1.283.228-.286.626-.475 1.193-.567l3.305-.534c.978-.158 1.74-.205 2.286-.139.54.061 1.02.23 1.44.506.427.275.77.641 1.031 1.097.261.456.432.989.513 1.599.171 1.301-.098 2.354-.807 3.157-.71.797-1.855 1.323-3.434 1.578Zm-1.397-5.754-1.735.281.515 3.903 1.735-.28c.607-.099 1.105-.244 1.493-.438.394-.194.679-.454.854-.779.176-.325.233-.723.171-1.193-.074-.564-.3-.996-.676-1.297-.42-.318-1.206-.383-2.357-.197ZM213.792 340.612l-.89.205.716 4.077c.095.537.047.959-.142 1.267-.19.308-.473.505-.85.592-.405.093-.743.033-1.012-.182-.269-.214-.449-.578-.54-1.091l-1.716-9.765c-.097-.554-.045-.983.157-1.288.202-.304.577-.52 1.125-.646l4.137-.952a12.117 12.117 0 0 1 1.478-.259 3.56 3.56 0 0 1 1.148.042c.424.077.814.236 1.172.478.357.242.649.553.877.933.232.373.388.79.469 1.252.167.946.034 1.763-.398 2.451-.426.686-1.155 1.272-2.186 1.755.493.139.987.397 1.482.776a9.93 9.93 0 0 1 1.362 1.262c.419.457.755.881 1.008 1.273.258.385.401.658.429.819a.963.963 0 0 1-.074.54 1.18 1.18 0 0 1-.361.479 1.41 1.41 0 0 1-.608.293c-.286.066-.538.052-.756-.042a1.836 1.836 0 0 1-.596-.394 23.75 23.75 0 0 1-.726-.788l-1.321-1.479c-.476-.545-.888-.948-1.237-1.21-.344-.263-.674-.421-.993-.474-.318-.053-.702-.028-1.154.076Zm.519-5.667-2.347.54.614 3.488 2.278-.524c.611-.141 1.116-.311 1.514-.511.398-.205.683-.46.855-.764.177-.311.226-.691.147-1.141a1.587 1.587 0 0 0-.428-.866 1.52 1.52 0 0 0-.843-.436c-.32-.059-.916.013-1.79.214ZM225.483 329.233c1.278-.392 2.432-.462 3.465-.211a4.68 4.68 0 0 1 2.591 1.616c.689.828 1.181 1.899 1.477 3.214.218.971.288 1.894.209 2.768a6.477 6.477 0 0 1-.695 2.422 5.878 5.878 0 0 1-1.598 1.921c-.681.539-1.507.957-2.476 1.255-.963.295-1.861.403-2.694.322-.833-.086-1.57-.34-2.21-.761-.639-.421-1.182-.997-1.627-1.727-.441-.733-.767-1.571-.979-2.514a8.727 8.727 0 0 1-.194-2.782 6.503 6.503 0 0 1 .722-2.422 5.882 5.882 0 0 1 1.591-1.873c.671-.529 1.477-.939 2.418-1.228Zm5 5.378c-.207-.921-.532-1.674-.975-2.259-.443-.585-.975-.966-1.595-1.142-.616-.183-1.274-.168-1.975.047a3.68 3.68 0 0 0-1.32.717 3.55 3.55 0 0 0-.906 1.167c-.22.459-.355 1.002-.406 1.628-.047.619.01 1.284.169 1.992.161.715.393 1.334.696 1.858.309.523.667.926 1.072 1.211.41.278.843.448 1.3.509.463.06.943.013 1.442-.14a3.72 3.72 0 0 0 1.646-1.028c.464-.491.777-1.124.938-1.901.166-.778.137-1.665-.086-2.659ZM245.237 329.778l.665 2.379c.089.316.13.581.123.797-.007.21-.072.423-.193.64a3.734 3.734 0 0 1-.49.681 11.644 11.644 0 0 1-1.845 1.712 9.485 9.485 0 0 1-2.114 1.142c-.922.362-1.802.546-2.642.551-.84.004-1.606-.168-2.296-.516-.691-.348-1.292-.864-1.804-1.546-.506-.684-.896-1.517-1.171-2.498a8.526 8.526 0 0 1-.324-2.814 6.47 6.47 0 0 1 .656-2.522 6.58 6.58 0 0 1 1.614-2.054c.69-.603 1.526-1.098 2.508-1.484.807-.318 1.553-.486 2.238-.504.683-.025 1.265.056 1.747.242.482.187.874.43 1.176.731.302.301.494.598.576.891.089.316.05.632-.116.948a1.35 1.35 0 0 1-.717.649 1.143 1.143 0 0 1-.543.072 1.055 1.055 0 0 1-.5-.198c-.436-.367-.792-.634-1.069-.801-.276-.167-.616-.265-1.017-.295-.397-.032-.867.059-1.413.274a4.187 4.187 0 0 0-1.419.897c-.387.371-.685.81-.893 1.319-.205.5-.315 1.06-.329 1.679-.009.618.08 1.262.268 1.933.407 1.456 1.042 2.45 1.905 2.981.868.529 1.881.566 3.037.112a6.145 6.145 0 0 0 1.514-.85 9.527 9.527 0 0 0 1.323-1.243l-.564-2.015-1.881.74c-.452.178-.816.243-1.09.194-.268-.051-.45-.246-.544-.584a1.026 1.026 0 0 1 .094-.799c.146-.257.385-.452.718-.583l2.756-1.084a3.66 3.66 0 0 1 .885-.244.888.888 0 0 1 .68.192c.207.157.371.449.491.878ZM248.812 327.062l-.825.393 1.306 3.928c.172.517.19.95.055 1.298a1.395 1.395 0 0 1-.727.772c-.376.179-.709.189-1 .032-.292-.157-.52-.484-.684-.978l-3.128-9.408c-.178-.534-.192-.975-.044-1.322.148-.348.475-.642.983-.884l3.832-1.827c.529-.252.99-.443 1.382-.572a3.39 3.39 0 0 1 1.11-.2c.418-.013.818.064 1.198.231.38.166.708.416.984.748.279.324.493.709.641 1.153.303.912.299 1.758-.012 2.537-.305.777-.917 1.517-1.836 2.218.496.035 1.01.189 1.542.464a8.852 8.852 0 0 1 1.501.975c.472.368.859.721 1.161 1.06.306.331.485.574.537.73.054.161.057.346.01.555a1.287 1.287 0 0 1-.275.556 1.472 1.472 0 0 1-.539.422c-.265.126-.509.165-.733.117a1.64 1.64 0 0 1-.632-.268c-.194-.14-.466-.352-.818-.635l-1.493-1.201c-.54-.445-.998-.761-1.373-.95-.369-.191-.711-.279-1.025-.265-.314.015-.68.122-1.098.321Zm-.359-5.781-2.174 1.037 1.117 3.361 2.111-1.006c.566-.27 1.025-.547 1.378-.831.351-.29.586-.605.706-.945.123-.349.112-.74-.032-1.174-.112-.339-.293-.597-.542-.775a1.368 1.368 0 0 0-.877-.258c-.316.008-.878.206-1.687.591ZM261.54 314.404l-5.142 2.851 1.128 2.956 4.735-2.625c.348-.193.639-.252.873-.176.237.068.408.238.512.512a1.1 1.1 0 0 1 .003.814c-.104.264-.333.493-.687.689l-4.735 2.625 1.307 3.425 5.319-2.949c.359-.199.662-.258.91-.177.252.073.434.258.547.553.108.285.105.569-.011.852-.112.274-.348.511-.707.71l-6.203 3.439c-.497.275-.901.357-1.211.243-.305-.116-.558-.437-.758-.962l-3.452-9.05c-.134-.35-.194-.662-.18-.935.012-.278.101-.523.269-.736.17-.22.417-.42.74-.599l6.026-3.341c.364-.201.666-.263.907-.184.245.07.42.245.526.524.109.284.107.564-.006.839-.109.266-.346.5-.71.702ZM274.315 314.371c.309.715.417 1.466.322 2.253-.09.784-.391 1.545-.905 2.282-.513.738-1.217 1.391-2.112 1.96-1.073.682-2.054 1.024-2.942 1.026a3.342 3.342 0 0 1-1.756-.498c-.537-.338-.914-.757-1.13-1.257a1.309 1.309 0 0 1-.046-.916c.097-.33.289-.585.576-.768.232-.147.462-.191.69-.13.233.058.475.209.726.454.301.288.586.509.853.661.273.149.591.214.955.196.361-.025.78-.187 1.254-.489.653-.415 1.111-.915 1.375-1.501.266-.594.292-1.139.078-1.634-.169-.392-.418-.639-.745-.74-.325-.109-.69-.116-1.097-.022-.402.091-.926.249-1.573.475-.867.297-1.622.483-2.265.555-.641.065-1.216-.033-1.725-.292-.506-.268-.907-.743-1.203-1.426a3.675 3.675 0 0 1-.26-2.046c.108-.713.412-1.4.914-2.062.5-.667 1.168-1.266 2.003-1.797.668-.425 1.283-.699 1.847-.824.566-.134 1.075-.153 1.527-.056.449.092.819.254 1.109.488.291.234.503.507.638.819.123.285.141.603.053.953a1.233 1.233 0 0 1-.543.778c-.253.16-.474.215-.666.166-.189-.058-.428-.195-.716-.409-.391-.321-.778-.517-1.162-.588-.386-.077-.886.079-1.499.469-.569.362-.969.791-1.202 1.288-.23.489-.262.925-.097 1.307.102.236.25.403.443.5.193.096.42.14.681.132.262-.008.514-.045.757-.11.242-.065.638-.186 1.185-.363a17.08 17.08 0 0 1 1.885-.54c.581-.129 1.103-.169 1.565-.12.468.046.887.214 1.259.506.375.283.691.723.949 1.32ZM283.429 307.046c.342.7.485 1.448.431 2.243-.05.792-.311 1.573-.783 2.343-.472.77-1.137 1.466-1.996 2.089-1.029.746-1.984 1.146-2.863 1.2a3.274 3.274 0 0 1-1.766-.399c-.548-.308-.942-.707-1.181-1.197a1.327 1.327 0 0 1-.092-.917 1.35 1.35 0 0 1 .533-.804c.223-.161.449-.218.678-.17.233.044.481.182.741.414.313.272.606.477.878.614.278.134.596.181.956.141.357-.045.763-.232 1.218-.562.627-.455 1.056-.983 1.288-1.586.234-.612.233-1.16-.004-1.645-.187-.384-.446-.617-.775-.7-.327-.09-.69-.077-1.088.041a14.83 14.83 0 0 0-1.534.567c-.845.349-1.584.578-2.218.688-.631.102-1.205.037-1.723-.194-.515-.239-.936-.694-1.262-1.362a3.72 3.72 0 0 1-.36-2.039c.071-.722.339-1.429.804-2.122.461-.699 1.093-1.339 1.895-1.92.64-.465 1.236-.776 1.789-.934.554-.167 1.058-.214 1.51-.143.45.066.824.208 1.123.426.299.218.523.479.673.785.136.279.169.597.099.954a1.258 1.258 0 0 1-.499.812c-.242.175-.459.243-.652.205-.19-.048-.433-.171-.729-.37-.403-.299-.797-.474-1.181-.523-.386-.055-.874.131-1.462.557-.545.396-.921.85-1.126 1.363-.204.504-.214.943-.032 1.317.113.231.268.39.464.476.196.086.423.117.682.094.258-.024.506-.075.743-.154.238-.08.623-.224 1.157-.433a16.805 16.805 0 0 1 1.841-.65c.569-.163 1.084-.234 1.544-.211.466.019.89.164 1.273.435.385.263.72.686 1.006 1.271Z"/><defs><linearGradient id="a" x1="259.433" x2="181" y1="27.144" y2="363" gradientUnits="userSpaceOnUse"><stop stop-color="#021037"/><stop offset="1" stop-color="#0171C3"/></linearGradient><linearGradient id="b" x1="282.058" x2="54.3" y1="54.294" y2="277.025" gradientUnits="userSpaceOnUse"><stop stop-color="#021037"/><stop offset="1" stop-color="#0171C3"/></linearGradient></defs></svg>