<?xml version="1.0" encoding="UTF-8" standalone="no"?>
<svg
   width="280"
   height="280"
   viewBox="0 0 280 280"
   fill="none"
   version="1.1"
   id="svg60"
   sodipodi:docname="logo.svg"
   inkscape:version="1.4 (86a8ad7, 2024-10-11)"
   xmlns:inkscape="http://www.inkscape.org/namespaces/inkscape"
   xmlns:sodipodi="http://sodipodi.sourceforge.net/DTD/sodipodi-0.dtd"
   xmlns="http://www.w3.org/2000/svg"
   xmlns:svg="http://www.w3.org/2000/svg">
  <sodipodi:namedview
     id="namedview60"
     pagecolor="#ffffff"
     bordercolor="#000000"
     borderopacity="0.25"
     inkscape:showpageshadow="2"
     inkscape:pageopacity="0.0"
     inkscape:pagecheckerboard="0"
     inkscape:deskcolor="#d1d1d1"
     inkscape:zoom="3.6256831"
     inkscape:cx="135.28485"
     inkscape:cy="154.59156"
     inkscape:window-width="3840"
     inkscape:window-height="1566"
     inkscape:window-x="-11"
     inkscape:window-y="-11"
     inkscape:window-maximized="1"
     inkscape:current-layer="svg60" />
  <circle
     cx="140"
     cy="140"
     fill="url(#paint0_linear_13_1071)"
     id="ellipse1"
     style="display:inline;mix-blend-mode:normal;fill:url(#paint0_linear_13_1071)"
     inkscape:label="ellipse1"
     r="140" />
  <path
     d="m 140.2272,23.533379 -98.041903,164.911201 -1.0055,1.508 H 122.6302 l 3.016,-3.016 3.52,-3.52 3.519,-3.519 2.514,-3.017 3.017,-3.519 1.508,-3.52 1.006,-3.017 -2.514,1.006 -3.017,0.503 h -3.017 l -3.016,-1.509 -3.52,-2.011 -2.514,-2.514 -2.011,-3.016 -1.005,-4.022 v -4.023 l 1.005,-4.525 2.514,-4.022 3.52,-3.519 4.022,-2.514 5.53,-1.006 h 6.536 l 5.531,2.514 5.028,3.017 4.022,5.53 3.017,6.536 0.502,6.034 v 5.53 l -2.011,7.542 -4.525,8.044 -6.033,8.045 h 88.489 z"
     fill="#ffffff"
     stroke="#ffffff"
     id="path3" />
  <circle
     cx="139.22119"
     cy="88.894577"
     r="17.5972"
     fill="url(#paint1_linear_13_1071)"
     id="circle3"
     style="fill:url(#paint1_linear_13_1071)" />
  <circle
     cx="139.22119"
     cy="88.894577"
     r="17.5972"
     stroke="#ffffff"
     id="circle4" />
  <path
     d="m 83.546197,238.74758 c -0.81,0 -1.5,-0.27 -2.07,-0.81 -0.54,-0.57 -0.81,-1.26 -0.81,-2.07 0,-0.96 0.3,-1.74 0.9,-2.34 0.63,-0.63 1.395,-0.945 2.295,-0.945 0.81,0 1.485,0.285 2.025,0.855 0.54,0.54 0.81,1.23 0.81,2.07 0,0.93 -0.315,1.71 -0.945,2.34 -0.6,0.6 -1.335,0.9 -2.205,0.9 z m 30.069003,-38.16 h 4.14 l -23.175003,42.39 h -4.14 z m 22.688,34.515 c 0.81,0 1.545,-0.135 2.205,-0.405 l -0.45,3.51 c -0.9,0.36 -1.965,0.54 -3.195,0.54 -1.53,0 -2.79,-0.345 -3.78,-1.035 -0.99,-0.72 -1.605,-1.695 -1.845,-2.925 -1.11,1.29 -2.445,2.28 -4.005,2.97 -1.53,0.66 -3.255,0.99 -5.175,0.99 -2.04,0 -3.855,-0.405 -5.445,-1.215 -1.59,-0.84 -2.835,-2.04 -3.735,-3.6 -0.9,-1.56 -1.35,-3.39 -1.35,-5.49 0,-2.7 0.585,-5.115 1.755,-7.245 1.17,-2.13 2.775,-3.795 4.815,-4.995 2.07,-1.2 4.38,-1.8 6.93,-1.8 2.04,0 3.78,0.36 5.22,1.08 1.47,0.72 2.595,1.785 3.375,3.195 l 0.81,-4.05 h 4.32 l -3.285,16.56 c -0.09,0.45 -0.135,0.84 -0.135,1.17 0,0.9 0.255,1.59 0.765,2.07 0.51,0.45 1.245,0.675 2.205,0.675 z m -15.3,-0.135 c 1.77,0 3.36,-0.42 4.77,-1.26 1.44,-0.87 2.55,-2.07 3.33,-3.6 0.81,-1.53 1.215,-3.27 1.215,-5.22 0,-2.13 -0.615,-3.78 -1.845,-4.95 -1.23,-1.17 -2.985,-1.755 -5.265,-1.755 -1.77,0 -3.36,0.435 -4.77,1.305 -1.41,0.84 -2.52,2.025 -3.33,3.555 -0.81,1.53 -1.215,3.27 -1.215,5.22 0,2.1 0.615,3.75 1.845,4.95 1.26,1.17 3.015,1.755 5.265,1.755 z m 32.516,3.78 c -2.28,0 -4.275,-0.42 -5.985,-1.26 -1.71,-0.87 -3.03,-2.07 -3.96,-3.6 -0.93,-1.56 -1.395,-3.375 -1.395,-5.445 0,-2.67 0.6,-5.07 1.8,-7.2 1.2,-2.13 2.865,-3.795 4.995,-4.995 2.13,-1.23 4.545,-1.845 7.245,-1.845 4.71,0 7.98,1.725 9.81,5.175 l -3.645,2.025 c -1.26,-2.28 -3.42,-3.42 -6.48,-3.42 -1.77,0 -3.375,0.435 -4.815,1.305 -1.41,0.84 -2.52,2.025 -3.33,3.555 -0.81,1.53 -1.215,3.27 -1.215,5.22 0,2.1 0.615,3.75 1.845,4.95 1.26,1.17 3.03,1.755 5.31,1.755 1.44,0 2.775,-0.285 4.005,-0.855 1.26,-0.57 2.295,-1.41 3.105,-2.52 l 3.15,2.25 c -1.11,1.53 -2.595,2.73 -4.455,3.6 -1.86,0.87 -3.855,1.305 -5.985,1.305 z m 27.427,-24.345 c 3.27,0 5.865,0.915 7.785,2.745 1.95,1.83 2.925,4.44 2.925,7.83 0,0.48 -0.015,0.855 -0.045,1.125 l -19.71,3.645 c 0.57,3.48 3.045,5.22 7.425,5.22 1.5,0 2.895,-0.24 4.185,-0.72 1.29,-0.48 2.355,-1.155 3.195,-2.025 l 1.845,3.105 c -1.17,1.11 -2.595,1.965 -4.275,2.565 -1.65,0.57 -3.42,0.855 -5.31,0.855 -2.34,0 -4.365,-0.42 -6.075,-1.26 -1.71,-0.84 -3.03,-2.04 -3.96,-3.6 -0.93,-1.56 -1.395,-3.39 -1.395,-5.49 0,-2.64 0.57,-5.025 1.71,-7.155 1.17,-2.13 2.76,-3.795 4.77,-4.995 2.04,-1.23 4.35,-1.845 6.93,-1.845 z m -0.135,3.6 c -2.43,0 -4.455,0.78 -6.075,2.34 -1.62,1.56 -2.58,3.645 -2.88,6.255 l 15.795,-2.925 c -0.15,-1.8 -0.84,-3.195 -2.07,-4.185 -1.23,-0.99 -2.82,-1.485 -4.77,-1.485 z"
     fill="#ffffff"
     id="path5" />
  <defs
     id="defs60">
    <linearGradient
       id="paint0_linear_13_1071"
       x1="259.43301"
       y1="27.1444"
       x2="181"
       y2="363"
       gradientUnits="userSpaceOnUse"
       gradientTransform="translate(-40.999993,-45.016991)">
      <stop
         stop-color="#021037"
         id="stop57" />
      <stop
         offset="1"
         stop-color="#0171C3"
         id="stop58" />
    </linearGradient>
    <linearGradient
       id="paint1_linear_13_1071"
       x1="282.05801"
       y1="54.294498"
       x2="54.299999"
       y2="277.02499"
       gradientUnits="userSpaceOnUse"
       gradientTransform="translate(-41.275803,-45.844421)">
      <stop
         stop-color="#021037"
         id="stop59" />
      <stop
         offset="1"
         stop-color="#0171C3"
         id="stop60" />
    </linearGradient>
  </defs>
</svg>
